<svg xmlns="http://www.w3.org/2000/svg" viewBox="0 0 240 240" width="240" height="240">
  <rect width="240" height="240" fill="white"/>
  <g fill="black">
    <rect x="20" y="20" width="60" height="60"/>
    <rect x="160" y="20" width="60" height="60"/>
    <rect x="20" y="160" width="60" height="60"/>
    <rect x="30" y="30" width="40" height="40" fill="white"/>
    <rect x="40" y="40" width="20" height="20" fill="black"/>
    <rect x="170" y="30" width="40" height="40" fill="white"/>
    <rect x="180" y="40" width="20" height="20" fill="black"/>
    <rect x="30" y="170" width="40" height="40" fill="white"/>
    <rect x="40" y="180" width="20" height="20" fill="black"/>
  </g>
  <g fill="black">
    <rect x="100" y="20" width="10" height="10"/>
    <rect x="120" y="20" width="10" height="10"/>
    <rect x="140" y="30" width="10" height="10"/>
    <rect x="100" y="40" width="10" height="10"/>
    <rect x="130" y="50" width="10" height="10"/>
    <rect x="110" y="60" width="10" height="10"/>
    <rect x="140" y="60" width="10" height="10"/>
    <rect x="100" y="80" width="10" height="10"/>
    <rect x="120" y="80" width="10" height="10"/>
    <rect x="150" y="80" width="10" height="10"/>
    <rect x="100" y="100" width="10" height="10"/>
    <rect x="130" y="100" width="10" height="10"/>
    <rect x="110" y="110" width="10" height="10"/>
    <rect x="150" y="110" width="10" height="10"/>
    <rect x="100" y="130" width="10" height="10"/>
    <rect x="120" y="130" width="10" height="10"/>
    <rect x="140" y="130" width="10" height="10"/>
    <rect x="110" y="150" width="10" height="10"/>
    <rect x="130" y="150" width="10" height="10"/>
    <rect x="100" y="160" width="10" height="10"/>
    <rect x="140" y="160" width="10" height="10"/>
    <rect x="110" y="170" width="10" height="10"/>
    <rect x="130" y="170" width="10" height="10"/>
    <rect x="150" y="170" width="10" height="10"/>
    <rect x="100" y="190" width="10" height="10"/>
    <rect x="120" y="190" width="10" height="10"/>
    <rect x="140" y="190" width="10" height="10"/>
    <rect x="110" y="210" width="10" height="10"/>
    <rect x="150" y="210" width="10" height="10"/>
    <rect x="100" y="220" width="10" height="10"/>
    <rect x="130" y="220" width="10" height="10"/>
  </g>
  <text x="120" y="138" font-family="system-ui, sans-serif" font-size="12" fill="oklch(0.55 0.2 30)" text-anchor="middle" font-weight="700">PLACEHOLDER</text>
</svg>
